<?xml version="1.0" encoding="UTF-8"?>
<svg width="247px" height="59px" viewBox="0 0 247 59" version="1.1" xmlns="http://www.w3.org/2000/svg" xmlns:xlink="http://www.w3.org/1999/xlink">
    <title>Group 15</title>
    <defs>
        <polygon id="path-1" points="0 0.636 26.3387 0.636 26.3387 36.57 0 36.57"></polygon>
        <polygon id="path-3" points="0.361 0.203 137.737 0.203 137.737 56.9992 0.361 56.9992"></polygon>
    </defs>
    <g id="Page-1" stroke="none" stroke-width="1" fill="none" fill-rule="evenodd">
        <g id="Desktop" transform="translate(-280.000000, -89.000000)">
            <g id="Group-15" transform="translate(280.000000, 89.000000)">
                <polygon id="Fill-1" fill="#1D1D1B" points="31.407 48.3672 37.608 48.3672 37.608 12.4332 31.407 12.4332"></polygon>
                <g id="Group-14" transform="translate(0.000000, 0.797200)">
                    <path d="M65.9935,37.7606 L47.8995,37.7606 C48.3065,40.9116 50.9495,42.8426 54.4565,42.8426 C56.8445,42.8426 59.2845,41.8266 60.4025,39.7936 C61.8765,40.6066 63.6045,41.5216 65.1295,42.3346 C62.9945,46.4006 58.4205,48.0776 54.0495,48.0776 C47.2895,48.0776 41.7495,43.0966 41.7495,35.6256 C41.7495,28.1536 47.2895,23.3256 54.0495,23.3256 C60.8095,23.3256 66.0955,28.1536 66.0955,35.6256 C66.0955,36.2356 66.0445,37.2016 65.9935,37.7606 L65.9935,37.7606 Z M60.0465,33.5416 C59.5895,30.2886 57.1495,28.5106 54.1005,28.5106 C50.8475,28.5106 48.3065,30.3396 47.8485,33.5416 L60.0465,33.5416 Z" id="Fill-2" fill="#1D1D1B"></path>
                    <path d="M87.9225,44.5204 C86.3975,46.9604 82.8905,48.0274 80.5525,48.0274 C74.3015,48.0274 68.4565,43.2494 68.4565,35.6764 C68.4565,28.0524 74.3015,23.3254 80.5525,23.3254 C82.6875,23.3254 86.1945,24.1384 87.9225,26.7824 L87.9225,23.8344 L94.1235,23.8344 L94.1235,47.5694 L87.9225,47.5694 L87.9225,44.5204 Z M81.4165,42.0804 C84.7715,42.0804 87.9225,39.7434 87.9225,35.6764 C87.9225,31.5594 84.6695,29.2724 81.4165,29.2724 C78.0115,29.2724 74.8595,31.8134 74.8595,35.6764 C74.8595,39.4884 78.0115,42.0804 81.4165,42.0804 L81.4165,42.0804 Z" id="Fill-4" fill="#1D1D1B"></path>
                    <path d="M105.3924,47.5698 L99.1914,47.5698 L99.1914,23.8338 L105.3924,23.8338 L105.3924,29.4248 C106.6114,25.1048 109.4074,23.3258 112.1014,23.3258 C113.7784,23.3258 115.0494,23.6818 116.0144,24.1908 L114.9474,29.7808 C113.4734,29.1198 111.9484,29.1198 111.3384,29.1198 C107.1204,29.1198 105.3924,32.8808 105.3924,39.1828 L105.3924,47.5698 Z" id="Fill-6" fill="#1D1D1B"></path>
                    <g id="Group-10" transform="translate(0.000000, 11.000000)">
                        <mask id="mask-2" fill="white">
                            <use xlink:href="#path-1"></use>
                        </mask>
                        <g id="Clip-9"></g>
                        <path d="M6.5057,18.628 C6.5057,12.072 11.2837,6.786 17.6367,6.786 L26.3387,6.786 L26.3387,0.636 L17.6367,0.636 C7.6747,0.636 -0.0003,8.667 -0.0003,18.628 C-0.0003,28.489 7.6747,36.57 17.6367,36.57 L26.3387,36.519 L26.3387,30.419 L17.6367,30.419 C11.2837,30.419 6.5057,25.134 6.5057,18.628" id="Fill-8" fill="#1D1D1B" mask="url(#mask-2)"></path>
                    </g>
                    <g id="Group-13" transform="translate(109.000000, 0.000000)">
                        <mask id="mask-4" fill="white">
                            <use xlink:href="#path-3"></use>
                        </mask>
                        <g id="Clip-12"></g>
                        <path d="M137.737,2.1562 L86.16,2.1562 L91.261,8.5402 C92.79,10.4542 95.107,11.5682 97.556,11.5682 L106.932,11.5682 L107.644,42.8892 L79.383,5.6642 C76.304,1.7452 72.124,-0.1748 67.874,0.2642 C63.632,0.7032 59.921,3.4422 57.711,7.9062 L40.76,44.4372 C40.736,44.4852 40.713,44.5322 40.69,44.5762 C40.665,44.5322 40.642,44.4862 40.617,44.4392 L13.934,2.0652 L0.361,2.0882 L30.507,49.6842 C32.87,53.3512 35.477,56.9992 40.804,56.9992 C44.895,56.9992 48.192,54.9902 50.965,49.4922 L56.133,38.6172 L80.905,38.6172 L76.01,32.4562 C74.481,30.5322 72.158,29.4112 69.701,29.4112 L60.508,29.4112 L69.009,11.5202 L101.096,51.7352 C104.395,55.9332 106.911,56.9992 109.891,56.9992 C110.892,56.9992 111.747,56.8052 112.406,56.5772 C114.61,55.8152 118.306,53.3982 118.306,45.7822 L118.306,11.5682 L137.737,11.5682 L137.737,2.1562 Z" id="Fill-11" fill="#1D1D1B" mask="url(#mask-4)"></path>
                    </g>
                </g>
            </g>
        </g>
    </g>
</svg>